<svg width="192" height="32" viewBox="0 0 192 32" fill="none" xmlns="http://www.w3.org/2000/svg">
<path d="M19.072 25.1203H4.83029C2.16602 25.1203 0 22.9612 0 20.29V6.62958C0 3.9653 2.1591 1.79929 4.83029 1.79929H19.072C21.7363 1.79929 23.9023 3.95838 23.9023 6.62958V20.297C23.9023 22.9612 21.7363 25.1203 19.072 25.1203Z" fill="#D80A1D"/>
<path d="M5.92302 7.00326C6.82957 6.09672 7.85376 5.41162 8.99559 4.96181C10.1374 4.50508 11.3 4.28363 12.4834 4.28363C13.6667 4.28363 14.8293 4.512 15.9711 4.96181C17.113 5.41854 18.1372 6.09672 19.0437 7.00326L20.3239 8.2835L17.7635 10.8855L16.4486 9.59833C15.895 9.05164 15.2791 8.63643 14.594 8.35962C13.9089 8.08281 13.2031 7.94441 12.4903 7.94441C11.7775 7.94441 11.0716 8.08281 10.3865 8.35962C9.70145 8.63643 9.07863 9.04472 8.53194 9.59833C7.97832 10.1243 7.57003 10.7263 7.29322 11.4114C7.01641 12.0965 6.87801 12.8024 6.87801 13.5152C6.87801 14.2279 7.01641 14.9338 7.29322 15.6189C7.57003 16.304 7.97832 16.9268 8.53194 17.4735C9.63225 18.5738 10.954 19.1274 12.4903 19.1274C13.2307 19.1274 13.9504 18.989 14.6355 18.7122C15.3206 18.4354 15.9296 18.0271 16.4486 17.4735L17.7704 16.1933L20.3309 18.7953L19.0506 20.0755C18.1441 20.982 17.1199 21.6671 15.9781 22.117C14.8362 22.5737 13.6736 22.7951 12.4903 22.7951C11.3069 22.7951 10.1443 22.5668 9.00251 22.117C7.86068 21.6602 6.83649 20.982 5.92994 20.0755C5.0234 19.169 4.34522 18.1517 3.90925 17.0237C3.46636 15.8957 3.25183 14.7331 3.25183 13.5359C3.25183 12.3387 3.47328 11.1761 3.90925 10.0481C4.3383 8.92708 5.01648 7.90981 5.92302 7.00326Z" fill="white"/>
<path d="M190.686 25.2933C190.997 25.2933 191.247 25.5355 191.247 25.84C191.247 26.1445 191.004 26.3936 190.686 26.3936C190.368 26.3936 190.119 26.1514 190.119 25.84C190.119 25.5286 190.368 25.2933 190.686 25.2933ZM190.679 25.4041C190.437 25.4041 190.257 25.6047 190.257 25.84C190.257 26.0822 190.437 26.276 190.686 26.276C190.928 26.276 191.101 26.0822 191.101 25.84C191.108 25.5978 190.928 25.4041 190.679 25.4041ZM190.596 26.1307H190.472V25.584C190.52 25.5771 190.589 25.5632 190.679 25.5632C190.783 25.5632 190.831 25.5771 190.873 25.6047C190.901 25.6255 190.928 25.6739 190.928 25.7224C190.928 25.7847 190.88 25.8331 190.818 25.8539V25.8608C190.873 25.8746 190.901 25.9231 190.914 25.9923C190.928 26.0753 190.942 26.1099 190.956 26.1238H190.818C190.804 26.103 190.79 26.0546 190.776 25.9923C190.769 25.93 190.734 25.9023 190.665 25.9023H190.603L190.596 26.1307ZM190.603 25.8193H190.665C190.734 25.8193 190.79 25.7985 190.79 25.7362C190.79 25.6878 190.755 25.6532 190.672 25.6532C190.638 25.6532 190.617 25.6532 190.603 25.6601V25.8193Z" fill="#D70F1F"/>
<path d="M163.289 26.6288V27.2863H161.282C161.185 27.2863 161.109 27.3209 161.047 27.3831C160.984 27.4454 160.95 27.5285 160.95 27.6184C160.95 27.7153 160.984 27.7914 161.047 27.8606C161.109 27.9298 161.192 27.9575 161.282 27.9575H162.611C162.749 27.9575 162.88 27.9852 162.998 28.0336C163.116 28.0821 163.226 28.1582 163.316 28.2412C163.406 28.3312 163.482 28.435 163.531 28.5527C163.579 28.6703 163.607 28.8018 163.607 28.9402C163.607 29.0786 163.579 29.2101 163.531 29.3277C163.482 29.4454 163.406 29.5561 163.316 29.646C163.226 29.736 163.116 29.8121 162.998 29.8606C162.88 29.909 162.749 29.9367 162.611 29.9367H160.611V29.2793H162.611C162.707 29.2793 162.79 29.2447 162.853 29.1824C162.915 29.1201 162.95 29.0371 162.95 28.9402C162.95 28.8502 162.915 28.7672 162.853 28.7049C162.79 28.6426 162.707 28.608 162.611 28.608H161.289C161.15 28.608 161.019 28.5803 160.901 28.5319C160.784 28.4835 160.673 28.4073 160.59 28.3174C160.5 28.2274 160.431 28.1236 160.382 27.999C160.334 27.8814 160.306 27.7499 160.306 27.6115C160.306 27.4731 160.334 27.3416 160.382 27.224C160.431 27.1063 160.507 26.9956 160.59 26.9126C160.68 26.8226 160.784 26.7534 160.901 26.705C161.019 26.6565 161.15 26.6288 161.289 26.6288H163.289Z" fill="#D70F1F"/>
<path d="M165.49 26.6428C165.718 26.6428 165.94 26.6843 166.14 26.7742C166.341 26.8642 166.514 26.9819 166.666 27.1272C166.819 27.2794 166.936 27.4524 167.026 27.6531C167.109 27.8538 167.158 28.0683 167.158 28.3036C167.158 28.532 167.116 28.7465 167.026 28.9472C166.943 29.1479 166.819 29.3278 166.666 29.48C166.514 29.6323 166.334 29.7499 166.14 29.8399C165.94 29.9229 165.725 29.9714 165.49 29.9714H164.493V31.3001H163.836V28.2967C163.836 28.0683 163.877 27.8469 163.967 27.6462C164.05 27.4455 164.175 27.2725 164.32 27.1203C164.473 26.968 164.646 26.8504 164.846 26.7673C165.047 26.6843 165.261 26.6428 165.49 26.6428ZM165.877 29.224C166.002 29.1756 166.106 29.0994 166.203 29.0095C166.293 28.9195 166.369 28.8088 166.417 28.6842C166.466 28.5597 166.493 28.4282 166.493 28.2898C166.493 28.1514 166.466 28.0199 166.417 27.9022C166.369 27.7846 166.293 27.6739 166.203 27.5839C166.113 27.4939 166.002 27.4178 165.877 27.3694C165.753 27.3209 165.621 27.2933 165.483 27.2933C165.345 27.2933 165.213 27.3209 165.095 27.3694C164.978 27.4178 164.867 27.4939 164.777 27.5839C164.687 27.6739 164.611 27.7846 164.563 27.9022C164.514 28.0199 164.486 28.1514 164.486 28.2898V29.2932H165.483C165.628 29.307 165.753 29.2794 165.877 29.224Z" fill="#D70F1F"/>
<path d="M169.365 26.6289V27.2864H169.033C168.894 27.2864 168.763 27.314 168.645 27.3625C168.528 27.4109 168.417 27.487 168.327 27.577C168.237 27.667 168.161 27.7777 168.112 27.8953C168.064 28.013 168.036 28.1445 168.036 28.2829V29.9506H167.372V28.2829C167.372 28.0545 167.414 27.833 167.504 27.6324C167.587 27.4317 167.711 27.2587 167.863 27.1064C168.016 26.9542 168.196 26.8365 168.396 26.7535C168.597 26.6705 168.811 26.622 169.04 26.622H169.365V26.6289Z" fill="#D70F1F"/>
<path d="M170.215 26.6288V29.9505H169.564V26.6288C169.564 26.6288 169.675 26.7465 169.89 26.7465C170.104 26.7465 170.215 26.6288 170.215 26.6288Z" fill="#D70F1F"/>
<path d="M170.555 27.6461C170.638 27.4454 170.762 27.2724 170.908 27.1202C171.06 26.9679 171.233 26.8503 171.434 26.7672C171.634 26.6842 171.849 26.6357 172.077 26.6357C172.306 26.6357 172.527 26.6773 172.728 26.7672C172.928 26.8503 173.101 26.9748 173.254 27.1202C173.406 27.2724 173.524 27.4454 173.614 27.6461C173.697 27.8468 173.745 28.0613 173.745 28.2966V29.9574H173.088V28.2897C173.088 28.1513 173.06 28.0198 173.011 27.9021C172.963 27.7845 172.887 27.6738 172.797 27.5838C172.707 27.4938 172.596 27.4177 172.472 27.3693C172.347 27.3208 172.216 27.2932 172.077 27.2932C171.939 27.2932 171.807 27.3208 171.69 27.3693C171.572 27.4177 171.461 27.4938 171.371 27.5838C171.281 27.6738 171.205 27.7845 171.157 27.9021C171.108 28.0198 171.081 28.1513 171.081 28.2897V29.9574H170.423V28.2897C170.43 28.0613 170.472 27.8468 170.555 27.6461Z" fill="#D70F1F"/>
<path d="M175.627 26.6288C175.856 26.6288 176.077 26.6704 176.278 26.7603C176.478 26.8434 176.651 26.9679 176.804 27.1133C176.956 27.2655 177.073 27.4385 177.157 27.6392C177.24 27.8399 177.288 28.0544 177.288 28.2897V29.6184C177.288 29.8467 177.246 30.0682 177.157 30.2689C177.067 30.4695 176.949 30.6426 176.804 30.7948C176.651 30.947 176.478 31.0647 176.278 31.1546C176.077 31.2377 175.862 31.2861 175.627 31.2861H175.295V30.6287H175.627C175.849 30.6287 176.042 30.5664 176.215 30.4419C176.388 30.3173 176.506 30.1512 176.575 29.9575H175.627C175.399 29.9575 175.184 29.9159 174.984 29.826C174.783 29.7429 174.603 29.6184 174.451 29.4661C174.298 29.3139 174.181 29.134 174.091 28.9333C174.008 28.7326 173.959 28.5181 173.959 28.2897C173.959 28.0613 174.001 27.8399 174.091 27.6392C174.174 27.4385 174.298 27.2655 174.451 27.1133C174.603 26.961 174.783 26.8434 174.984 26.7603C175.184 26.6704 175.399 26.6288 175.627 26.6288ZM174.624 28.2828C174.624 28.4212 174.651 28.5527 174.7 28.6772C174.748 28.8018 174.824 28.9056 174.914 29.0025C175.004 29.0924 175.115 29.1686 175.24 29.217C175.364 29.2654 175.496 29.2931 175.634 29.2931H176.638V28.2897C176.638 28.1513 176.61 28.0198 176.561 27.9022C176.513 27.7845 176.437 27.6738 176.347 27.5838C176.257 27.4939 176.146 27.4177 176.022 27.3693C175.897 27.3209 175.766 27.2932 175.627 27.2932C175.489 27.2932 175.357 27.3209 175.233 27.3693C175.108 27.4177 175.004 27.4939 174.907 27.5838C174.818 27.6738 174.741 27.7845 174.693 27.9022C174.645 28.0198 174.624 28.1444 174.624 28.2828Z" fill="#D70F1F"/>
<path d="M182.299 26.6288C182.527 26.6288 182.748 26.6704 182.949 26.7603C183.15 26.8503 183.323 26.9679 183.475 27.1133C183.627 27.2655 183.745 27.4385 183.828 27.6392C183.911 27.8399 183.959 28.0544 183.959 28.2897V29.9575H182.305C182.077 29.9575 181.863 29.9159 181.662 29.826C181.461 29.7429 181.281 29.6184 181.129 29.4661C180.977 29.3139 180.859 29.134 180.769 28.9333C180.686 28.7326 180.638 28.5181 180.638 28.2897C180.638 28.0613 180.679 27.8399 180.769 27.6392C180.852 27.4385 180.977 27.2655 181.129 27.1133C181.281 26.961 181.461 26.8434 181.662 26.7603C181.863 26.6704 182.077 26.6288 182.299 26.6288ZM183.302 29.2862V28.2828C183.302 28.1444 183.274 28.0129 183.226 27.8952C183.177 27.7776 183.101 27.6669 183.011 27.5769C182.921 27.4869 182.811 27.4108 182.693 27.3624C182.575 27.3139 182.444 27.2863 182.305 27.2863C182.167 27.2863 182.036 27.3139 181.911 27.3624C181.786 27.4108 181.683 27.4869 181.586 27.5769C181.496 27.6669 181.42 27.7776 181.371 27.8952C181.323 28.0129 181.295 28.1444 181.295 28.2828C181.295 28.4212 181.323 28.5527 181.371 28.6772C181.42 28.8018 181.496 28.9056 181.586 29.0025C181.676 29.0924 181.786 29.1686 181.911 29.217C182.036 29.2654 182.167 29.2931 182.305 29.2931L183.302 29.2862Z" fill="#D70F1F"/>
<path d="M186.146 26.6289V27.2864H185.814C185.676 27.2864 185.544 27.314 185.427 27.3625C185.309 27.4109 185.198 27.487 185.108 27.577C185.018 27.667 184.942 27.7777 184.894 27.8953C184.845 28.013 184.818 28.1445 184.818 28.2829V29.9506H184.153V28.2829C184.153 28.0545 184.195 27.833 184.285 27.6324C184.368 27.4317 184.492 27.2587 184.645 27.1064C184.797 26.9542 184.977 26.8365 185.177 26.7535C185.378 26.6705 185.593 26.622 185.821 26.622H186.146V26.6289Z" fill="#D70F1F"/>
<path d="M189.599 25.2933V28.2829C189.599 28.5112 189.558 28.7257 189.468 28.9264C189.385 29.1271 189.26 29.307 189.115 29.4593C188.963 29.6115 188.79 29.7292 188.589 29.8191C188.388 29.9091 188.174 29.9506 187.946 29.9506C187.717 29.9506 187.503 29.9091 187.302 29.8191C187.101 29.7361 186.921 29.6115 186.769 29.4593C186.617 29.307 186.499 29.1271 186.409 28.9264C186.326 28.7257 186.278 28.5112 186.278 28.2829C186.278 28.0545 186.319 27.833 186.409 27.6324C186.492 27.4317 186.617 27.2587 186.769 27.1064C186.921 26.9542 187.101 26.8365 187.302 26.7535C187.503 26.6705 187.717 26.622 187.946 26.622H188.942V25.2933H189.599ZM187.946 29.2863C188.084 29.2863 188.215 29.2586 188.333 29.2102C188.451 29.1617 188.561 29.0856 188.651 28.9956C188.741 28.9057 188.817 28.795 188.866 28.6704C188.914 28.5458 188.942 28.4143 188.942 28.2759V27.2794H187.946C187.807 27.2794 187.676 27.3071 187.551 27.3556C187.427 27.404 187.323 27.4801 187.226 27.5701C187.136 27.66 187.06 27.7708 187.011 27.8884C186.963 28.006 186.935 28.1375 186.935 28.2759C186.935 28.4143 186.963 28.5458 187.011 28.6704C187.06 28.795 187.136 28.8988 187.226 28.9956C187.316 29.0856 187.427 29.1617 187.551 29.2102C187.676 29.2655 187.807 29.2932 187.946 29.2863Z" fill="#D70F1F"/>
<path d="M169.89 25.8608C170.069 25.8608 170.215 26.0061 170.215 26.186C170.215 26.366 170.069 26.5113 169.89 26.5113C169.71 26.5113 169.564 26.366 169.564 26.186C169.564 26.0061 169.71 25.8608 169.89 25.8608Z" fill="#D70F1F"/>
<path d="M178.008 27.1479C178.167 26.9887 178.354 26.8642 178.554 26.7811C178.755 26.6981 178.963 26.6566 179.177 26.6566C179.385 26.6566 179.592 26.6981 179.8 26.7811C180.001 26.8642 180.188 26.9818 180.347 27.1479L180.575 27.3763L180.118 27.8399L179.883 27.6115C179.786 27.5147 179.675 27.4385 179.551 27.3901C179.426 27.3417 179.302 27.314 179.177 27.314C179.053 27.314 178.928 27.3417 178.804 27.3901C178.679 27.4385 178.568 27.5147 178.471 27.6115C178.374 27.7015 178.298 27.8122 178.25 27.9368C178.201 28.0614 178.174 28.1859 178.174 28.3105C178.174 28.435 178.201 28.5596 178.25 28.6842C178.298 28.8087 178.374 28.9195 178.471 29.0163C178.665 29.2101 178.9 29.307 179.177 29.307C179.309 29.307 179.433 29.2793 179.558 29.2309C179.682 29.1824 179.786 29.1063 179.883 29.0094L180.118 28.7811L180.575 29.2447L180.347 29.4731C180.188 29.6322 180.001 29.7568 179.8 29.8398C179.599 29.9229 179.392 29.9644 179.177 29.9644C178.97 29.9644 178.762 29.9229 178.554 29.8398C178.354 29.7568 178.167 29.6392 178.008 29.4731C177.849 29.307 177.724 29.134 177.648 28.9333C177.572 28.7326 177.53 28.525 177.53 28.3105C177.53 28.096 177.572 27.8884 177.648 27.6877C177.724 27.487 177.849 27.3071 178.008 27.1479Z" fill="#D70F1F"/>
<path d="M155.261 27.6393C155.4 27.7015 155.524 27.7846 155.628 27.8884C155.732 27.9922 155.815 28.1168 155.877 28.2552C155.94 28.3936 155.967 28.5458 155.967 28.7119C155.967 28.8711 155.94 29.0233 155.877 29.1617C155.815 29.307 155.732 29.4316 155.628 29.5354C155.524 29.6461 155.4 29.7292 155.261 29.7845C155.123 29.8468 154.971 29.8745 154.805 29.8745C154.646 29.8745 154.493 29.8468 154.355 29.7845C154.21 29.7222 154.085 29.6392 153.981 29.5354C153.87 29.4247 153.787 29.3001 153.732 29.1617C153.67 29.0164 153.642 28.8711 153.642 28.7119V26.6082H154.106V27.5424H154.812C154.971 27.5424 155.123 27.577 155.261 27.6393ZM154.805 29.4178C154.902 29.4178 154.992 29.397 155.075 29.3624C155.158 29.3278 155.234 29.2724 155.296 29.2101C155.358 29.1479 155.414 29.0717 155.448 28.9818C155.483 28.8918 155.504 28.8019 155.504 28.705C155.504 28.6081 155.483 28.5181 155.448 28.4351C155.414 28.352 155.358 28.2759 155.296 28.2136C155.234 28.1514 155.158 28.096 155.075 28.0614C154.992 28.0268 154.902 28.006 154.805 28.006H154.099V28.7119C154.099 28.8088 154.12 28.8987 154.154 28.9887C154.189 29.0787 154.244 29.1479 154.306 29.2171C154.369 29.2793 154.445 29.3347 154.535 29.3693C154.618 29.4039 154.708 29.4178 154.805 29.4178Z" fill="#D70F1F"/>
<path d="M158.452 27.5424V29.6461C158.452 29.8122 158.424 29.9644 158.362 30.1028C158.3 30.2412 158.216 30.3658 158.113 30.4765C158.009 30.5872 157.884 30.6703 157.746 30.7256C157.608 30.7879 157.455 30.8156 157.289 30.8156H157.054V30.352H157.289C157.386 30.352 157.476 30.3312 157.566 30.2966C157.649 30.262 157.725 30.2066 157.787 30.1444C157.85 30.0821 157.905 30.0059 157.94 29.916C157.974 29.826 157.995 29.7361 157.995 29.6392V29.6323C157.898 29.7084 157.787 29.7707 157.67 29.8122C157.552 29.8537 157.421 29.8745 157.289 29.8745C157.13 29.8745 156.978 29.8468 156.839 29.7845C156.694 29.7222 156.569 29.6392 156.466 29.5354C156.355 29.4247 156.272 29.3001 156.217 29.1617C156.154 29.0164 156.127 28.871 156.127 28.7119V27.5424H156.59V28.7119C156.59 28.8088 156.611 28.8987 156.646 28.9887C156.68 29.0786 156.736 29.1478 156.798 29.217C156.86 29.2793 156.936 29.3347 157.026 29.3693C157.116 29.4039 157.206 29.4247 157.303 29.4247C157.4 29.4247 157.49 29.4039 157.58 29.3693C157.663 29.3347 157.739 29.2793 157.801 29.217C157.864 29.1548 157.919 29.0786 157.954 28.9887C157.988 28.8987 158.009 28.8088 158.009 28.7119V27.5424H158.452Z" fill="#D70F1F"/>
<path d="M25.6535 13.8197C25.6535 12.4771 25.9026 11.2315 26.4009 10.0689C26.8991 8.91324 27.5842 7.90289 28.4562 7.03095C29.3281 6.159 30.3454 5.4739 31.5149 4.97565C32.6844 4.4774 33.9301 4.22827 35.238 4.22827C36.5805 4.22827 37.8261 4.4774 38.9818 4.97565C40.1375 5.4739 41.1617 6.159 42.0405 7.03095C42.9263 7.90289 43.6183 8.91324 44.1166 10.0689C44.6148 11.2246 44.864 12.4771 44.864 13.8197C44.864 15.1345 44.6148 16.3732 44.1166 17.5427C43.6183 18.7122 42.9263 19.7433 42.0405 20.6291C41.1547 21.5149 40.1375 22.2069 38.9818 22.7052C37.833 23.2034 36.5874 23.4526 35.2449 23.4526C33.93 23.4526 32.6913 23.2034 31.5218 22.7052C30.3523 22.2069 29.3281 21.5149 28.4631 20.6291C27.5912 19.7433 26.9061 18.7191 26.4078 17.5427C25.9026 16.3732 25.6535 15.1276 25.6535 13.8197ZM29.4181 13.8197C29.4181 14.6224 29.5703 15.3767 29.8679 16.0895C30.1655 16.8023 30.5807 17.4251 31.1066 17.951C31.6325 18.4769 32.2554 18.8922 32.9681 19.1897C33.6809 19.4873 34.4352 19.6395 35.238 19.6395C36.0338 19.6395 36.795 19.4873 37.5078 19.1897C38.2206 18.8922 38.8434 18.4769 39.3693 17.951C39.8953 17.4251 40.3105 16.8023 40.608 16.0895C40.9056 15.3767 41.0578 14.6224 41.0578 13.8197C41.0578 13.0238 40.9056 12.2695 40.608 11.5706C40.3105 10.8717 39.8953 10.2558 39.3693 9.72982C38.8434 9.20389 38.2206 8.78867 37.5078 8.49111C36.795 8.19354 36.0338 8.04129 35.238 8.04129C34.4352 8.04129 33.6809 8.19354 32.9681 8.49111C32.2554 8.78867 31.6325 9.20389 31.1066 9.72982C30.5807 10.2558 30.1655 10.8717 29.8679 11.5706C29.5703 12.2695 29.4181 13.0169 29.4181 13.8197Z" fill="#D70F1F"/>
<path d="M71.6791 4.13828C73.0216 4.13828 74.2672 4.3874 75.4229 4.88566C76.5785 5.38391 77.6027 6.06901 78.4816 6.94095C79.3674 7.8129 80.0594 8.82324 80.5577 9.97891C81.0559 11.1346 81.305 12.3871 81.305 13.7227V23.3556H77.492V13.7297C77.492 12.9338 77.3398 12.1795 77.0422 11.4806C76.7446 10.7817 76.3294 10.1658 75.8035 9.63983C75.2776 9.11389 74.6547 8.69868 73.942 8.40111C73.2292 8.10354 72.468 7.9513 71.6721 7.9513C70.8694 7.9513 70.122 8.10354 69.4231 8.40111C68.7241 8.69868 68.1082 9.11389 67.5823 9.63983C67.0564 10.1658 66.6412 10.7817 66.3436 11.4806C66.046 12.1795 65.8938 12.9269 65.8938 13.7297V23.3626H62.0808V13.7297C62.0808 12.9338 61.9285 12.1795 61.6309 11.4806C61.3334 10.7817 60.9182 10.1658 60.3922 9.63983C59.8663 9.11389 59.2435 8.69868 58.5307 8.40111C57.8179 8.10354 57.0567 7.9513 56.2609 7.9513C55.4581 7.9513 54.7108 8.10354 54.0118 8.40111C53.3129 8.69868 52.697 9.11389 52.171 9.63983C51.6451 10.1658 51.2299 10.7817 50.9323 11.4806C50.6348 12.1795 50.4825 12.9269 50.4825 13.7297V23.3626H46.6695V13.7297C46.6695 12.3871 46.9186 11.1415 47.4169 9.98584C47.9151 8.83016 48.6002 7.81982 49.4722 6.94787C50.3441 6.07593 51.3614 5.39083 52.5309 4.89258C53.7004 4.39432 54.946 4.1452 56.254 4.1452C57.8525 4.1452 59.3127 4.49813 60.6414 5.19707C61.97 5.896 63.0773 6.84407 63.963 8.04818C64.8488 6.85099 65.963 5.90292 67.3055 5.19707C68.6549 4.49121 70.1082 4.13828 71.6791 4.13828Z" fill="#D70F1F"/>
<path d="M92.7106 4.22131C94.0532 4.22131 95.2988 4.47044 96.4545 4.96869C97.6101 5.46695 98.6343 6.15205 99.5132 7.02399C100.399 7.89593 101.091 8.90628 101.589 10.062C102.088 11.2176 102.337 12.4702 102.337 13.8127C102.337 15.1275 102.088 16.3662 101.589 17.5358C101.091 18.7053 100.399 19.7364 99.5132 20.6222C98.6274 21.5079 97.6101 22.2 96.4545 22.6982C95.2988 23.1965 94.0462 23.4456 92.7106 23.4456H86.9323V31.1547H83.1193V13.8196C83.1193 12.4771 83.3684 11.2315 83.8666 10.0689C84.3649 8.9132 85.05 7.90285 85.9219 7.03091C86.7939 6.15897 87.8111 5.47387 88.9807 4.97561C90.1571 4.47736 91.3958 4.22131 92.7106 4.22131ZM94.9805 19.1897C95.6932 18.8921 96.3161 18.4769 96.842 17.951C97.3679 17.425 97.7831 16.8022 98.0807 16.0894C98.3783 15.3767 98.5305 14.6224 98.5305 13.8196C98.5305 13.0238 98.3783 12.2695 98.0807 11.5706C97.7831 10.8716 97.3679 10.2557 96.842 9.72978C96.3161 9.20385 95.6932 8.78864 94.9805 8.49107C94.2677 8.1935 93.5065 8.04126 92.7106 8.04126C91.9079 8.04126 91.1605 8.1935 90.4616 8.49107C89.7626 8.78864 89.1467 9.20385 88.6208 9.72978C88.0949 10.2557 87.6797 10.8716 87.3821 11.5706C87.0845 12.2695 86.9323 13.0169 86.9323 13.8196V19.6464H92.7106C93.5134 19.6395 94.2677 19.4873 94.9805 19.1897Z" fill="#D70F1F"/>
<path d="M113.567 4.13828C114.91 4.13828 116.156 4.3874 117.311 4.88566C118.467 5.38391 119.477 6.06901 120.349 6.94095C121.221 7.8129 121.906 8.82324 122.404 9.97891C122.903 11.1346 123.152 12.3871 123.152 13.7227V23.3556H113.56C112.246 23.3556 111.007 23.1065 109.837 22.6083C108.668 22.11 107.637 21.418 106.751 20.5322C105.865 19.6464 105.173 18.6222 104.675 17.4458C104.177 16.2763 103.928 15.0307 103.928 13.7227C103.928 12.3802 104.177 11.1346 104.675 9.97891C105.173 8.82324 105.865 7.8129 106.751 6.94095C107.637 6.06901 108.661 5.38391 109.837 4.88566C111.014 4.3874 112.259 4.13828 113.567 4.13828ZM119.353 19.5565V13.7297C119.353 12.9338 119.2 12.1795 118.903 11.4806C118.605 10.7817 118.19 10.1658 117.664 9.63983C117.138 9.11389 116.522 8.69868 115.823 8.40111C115.124 8.10354 114.377 7.9513 113.574 7.9513C112.772 7.9513 112.017 8.10354 111.304 8.40111C110.592 8.69868 109.969 9.11389 109.443 9.63983C108.917 10.1658 108.502 10.7817 108.204 11.4806C107.907 12.1795 107.754 12.9269 107.754 13.7297C107.754 14.5324 107.907 15.2867 108.204 15.9995C108.502 16.7123 108.917 17.3351 109.443 17.861C109.969 18.3869 110.592 18.8022 111.304 19.0997C112.017 19.3973 112.772 19.5495 113.574 19.5495H119.353V19.5565Z" fill="#D70F1F"/>
<path d="M125.803 10.0274C126.301 8.8717 126.986 7.86136 127.858 6.98941C128.73 6.11747 129.747 5.43237 130.917 4.93412C132.086 4.43586 133.332 4.18674 134.64 4.18674C135.982 4.18674 137.228 4.43586 138.384 4.93412C139.539 5.43237 140.564 6.11747 141.442 6.98941C142.328 7.86136 143.02 8.8717 143.518 10.0274C144.017 11.183 144.266 12.4356 144.266 13.7712V23.4041H140.453V13.7712C140.453 12.9754 140.301 12.2211 140.003 11.5221C139.705 10.8232 139.29 10.2073 138.764 9.68137C138.238 9.15543 137.616 8.74022 136.903 8.44265C136.19 8.14509 135.429 7.99284 134.633 7.99284C133.83 7.99284 133.083 8.14509 132.384 8.44265C131.685 8.74022 131.069 9.15543 130.543 9.68137C130.017 10.2073 129.602 10.8232 129.304 11.5221C129.007 12.2211 128.855 12.9685 128.855 13.7712V23.4041H125.042V13.7712C125.055 12.4287 125.305 11.183 125.803 10.0274Z" fill="#D70F1F"/>
<path d="M151.304 13.8197C151.304 12.4771 151.553 11.2315 152.051 10.0689C152.549 8.91324 153.234 7.90289 154.106 7.03095C154.978 6.159 155.996 5.4739 157.165 4.97565C158.335 4.4774 159.58 4.22827 160.888 4.22827C162.231 4.22827 163.476 4.4774 164.632 4.97565C165.788 5.4739 166.812 6.159 167.691 7.03095C168.577 7.90289 169.269 8.91324 169.767 10.0689C170.265 11.2246 170.514 12.4771 170.514 13.8197C170.514 15.1345 170.265 16.3732 169.767 17.5427C169.269 18.7122 168.577 19.7433 167.691 20.6291C166.805 21.5149 165.788 22.2069 164.632 22.7052C163.476 23.2034 162.224 23.4526 160.888 23.4526C159.573 23.4526 158.335 23.2034 157.165 22.7052C155.996 22.2069 154.971 21.5149 154.106 20.6291C153.234 19.7433 152.549 18.7191 152.051 17.5427C151.553 16.3732 151.304 15.1276 151.304 13.8197ZM155.075 13.8197C155.075 14.6224 155.227 15.3767 155.525 16.0895C155.823 16.8023 156.238 17.4251 156.764 17.951C157.29 18.4769 157.912 18.8922 158.625 19.1897C159.338 19.4873 160.092 19.6395 160.895 19.6395C161.691 19.6395 162.452 19.4873 163.165 19.1897C163.878 18.8922 164.501 18.4769 165.026 17.951C165.552 17.4251 165.968 16.8023 166.265 16.0895C166.563 15.3767 166.715 14.6224 166.715 13.8197C166.715 13.0238 166.563 12.2695 166.265 11.5706C165.968 10.8717 165.552 10.2558 165.026 9.72982C164.501 9.20389 163.878 8.78867 163.165 8.49111C162.452 8.19354 161.691 8.04129 160.895 8.04129C160.092 8.04129 159.338 8.19354 158.625 8.49111C157.912 8.78867 157.29 9.20389 156.764 9.72982C156.238 10.2558 155.823 10.8717 155.525 11.5706C155.221 12.2695 155.075 13.0169 155.075 13.8197Z" fill="#D70F1F"/>
<path d="M172.895 10.0274C173.393 8.8717 174.078 7.86136 174.95 6.98941C175.822 6.11747 176.839 5.43237 178.009 4.93412C179.178 4.43586 180.424 4.18674 181.732 4.18674C183.074 4.18674 184.32 4.43586 185.476 4.93412C186.631 5.43237 187.655 6.11747 188.534 6.98941C189.42 7.86136 190.112 8.8717 190.61 10.0274C191.109 11.183 191.358 12.4356 191.358 13.7712V23.4041H187.545V13.7712C187.545 12.9754 187.392 12.2211 187.095 11.5221C186.797 10.8232 186.382 10.2073 185.856 9.68137C185.33 9.15543 184.707 8.74022 183.995 8.44265C183.282 8.14509 182.521 7.99284 181.725 7.99284C180.922 7.99284 180.175 8.14509 179.476 8.44265C178.777 8.74022 178.161 9.15543 177.635 9.68137C177.109 10.2073 176.694 10.8232 176.396 11.5221C176.099 12.2211 175.946 12.9685 175.946 13.7712V23.4041H172.133V13.7712C172.147 12.4287 172.396 11.183 172.895 10.0274Z" fill="#D70F1F"/>
<path d="M149.671 4.41504V23.4179H145.948V4.41504C145.948 4.41504 146.591 5.0863 147.809 5.0863C149.027 5.09322 149.671 4.41504 149.671 4.41504Z" fill="#D70F1F"/>
<path d="M147.85 0C148.882 0 149.712 0.837343 149.712 1.86153C149.712 2.89264 148.875 3.72306 147.85 3.72306C146.819 3.72306 145.989 2.88572 145.989 1.86153C145.989 0.837343 146.819 0 147.85 0Z" fill="#D70F1F"/>
</svg>
